<?xml version="1.0" encoding="UTF-8" standalone="no"?>
<svg
   xmlns:dc="http://purl.org/dc/elements/1.1/"
   xmlns:cc="http://creativecommons.org/ns#"
   xmlns:rdf="http://www.w3.org/1999/02/22-rdf-syntax-ns#"
   xmlns:svg="http://www.w3.org/2000/svg"
   xmlns="http://www.w3.org/2000/svg"
   version="1.1"
   id="svg4767"
   viewBox="0 0 141.73221 38.976378"
   height="11mm"
   width="40mm">
  <defs
     id="defs4769" />
  <metadata
     id="metadata4772">
    <rdf:RDF>
      <cc:Work
         rdf:about="">
        <dc:format>image/svg+xml</dc:format>
        <dc:type
           rdf:resource="http://purl.org/dc/dcmitype/StillImage" />
        <dc:title></dc:title>
      </cc:Work>
    </rdf:RDF>
  </metadata>
  <g
     transform="translate(0,-1013.3858)"
     id="layer1">
    <g
       transform="matrix(0.77564897,0,0,0.77564897,-111.86588,993.0362)"
       id="text4147-1-3"
       style="font-style:normal;font-variant:normal;font-weight:bold;font-stretch:normal;font-size:40px;line-height:125%;font-family:'TeX Gyre Heros';-inkscape-font-specification:'TeX Gyre Heros Bold';letter-spacing:0px;word-spacing:0px;fill:#835a3b;fill-opacity:1;stroke:none;stroke-width:0.40000001;stroke-linecap:butt;stroke-linejoin:miter;stroke-miterlimit:4;stroke-dasharray:none;stroke-opacity:1">
      <path
         id="path4278"
         style="font-style:normal;font-variant:normal;font-weight:bold;font-stretch:normal;font-family:'TeX Gyre Heros';-inkscape-font-specification:'TeX Gyre Heros Bold';fill:#835a3b;fill-opacity:1;stroke:none;stroke-width:0.40000001;stroke-miterlimit:4;stroke-dasharray:none;stroke-opacity:1"
         d="m 165.11442,64.052048 0,-3.92 c -0.56,0.08 -0.88,0.12 -1.28,0.12 -1.48,0 -1.84,-0.44 -1.84,-2.36 l 0,-11.28 3.12,0 0,-3.72 -3.12,0 0,-5.8 -5.6,0 0,5.8 -2.76,0 0,3.72 2.76,0 0,12.8 c 0,3.4 1.8,4.8 5.48,4.8 1.24,0 2.24,-0.12 3.24,-0.16 z" />
      <path
         id="path4280"
         style="font-style:normal;font-variant:normal;font-weight:bold;font-stretch:normal;font-family:'TeX Gyre Heros';-inkscape-font-specification:'TeX Gyre Heros Bold';fill:#835a3b;fill-opacity:1;stroke:none;stroke-width:0.40000001;stroke-miterlimit:4;stroke-dasharray:none;stroke-opacity:1"
         d="m 187.62817,64.052048 0,-0.68 c -1,-0.92 -1.28,-1.52 -1.28,-2.64 l 0,-12 c 0,-4.4 -3,-6.64 -8.84,-6.64 -5.84,0 -8.88,2.48 -9.24,7.48 l 5.4,0 c 0.28,-2.24 1.2,-2.96 3.96,-2.96 2.16,0 3.24,0.72 3.24,2.16 0,2.28 -1.68,2.04 -4.48,2.52 l -2.24,0.4 c -4.28,0.76 -6.36,2.6 -6.36,6.52 0,4.2 2.96,6.2 6.56,6.2 2.4,0 4.6,-1.04 6.56,-3.08 0,1.12 0.12,2.08 0.64,2.72 l 6.08,0 z m -6.76,-9.24 c 0,3.24 -1.6,5.08 -4.44,5.08 -1.88,0 -3.04,-0.72 -3.04,-2.32 0,-1.64 0.88,-2.24 3.2,-2.68 l 1.92,-0.36 c 1.48,-0.28 1.72,-0.36 2.36,-0.68 l 0,0.96 z" />
      <path
         id="path4282"
         style="font-style:normal;font-variant:normal;font-weight:bold;font-stretch:normal;font-family:'TeX Gyre Heros';-inkscape-font-specification:'TeX Gyre Heros Bold';fill:#835a3b;fill-opacity:1;stroke:none;stroke-width:0.40000001;stroke-miterlimit:4;stroke-dasharray:none;stroke-opacity:1"
         d="m 209.73379,57.652048 0,-0.28 c 0,-2.48 -1.4,-4.32 -4.24,-5.16 l -7.08,-2.04 c -1.56,-0.44 -1.96,-0.8 -1.96,-1.68 0,-1.2 1.28,-2 3.24,-2 2.68,0 4,0.96 4.04,2.92 l 5.4,0 c -0.08,-4.56 -3.6,-7.32 -9.4,-7.32 -5.48,0 -8.88,2.76 -8.88,7.2 0,2.64 0.72,4.08 4.72,5.32 l 6.68,2.08 c 1.4,0.44 1.88,0.88 1.88,1.48 0,1.32 -1.56,1.84 -4.16,1.84 -2.56,0 -3.92,-0.48 -4.4,-2.8 l -5.48,0 c 0.16,4.72 3.64,7.2 10.2,7.2 6.08,0 9.44,-2.4 9.44,-6.76 z" />
      <path
         id="path4284"
         style="font-style:normal;font-variant:normal;font-weight:bold;font-stretch:normal;font-family:'TeX Gyre Heros';-inkscape-font-specification:'TeX Gyre Heros Bold';fill:#835a3b;fill-opacity:1;stroke:none;stroke-width:0.40000001;stroke-miterlimit:4;stroke-dasharray:none;stroke-opacity:1"
         d="m 223.23942,64.052048 0,-3.92 c -0.56,0.08 -0.88,0.12 -1.28,0.12 -1.48,0 -1.84,-0.44 -1.84,-2.36 l 0,-11.28 3.12,0 0,-3.72 -3.12,0 0,-5.8 -5.6,0 0,5.8 -2.76,0 0,3.72 2.76,0 0,12.8 c 0,3.4 1.8,4.8 5.48,4.8 1.24,0 2.24,-0.12 3.24,-0.16 z" />
      <path
         id="path4286"
         style="font-style:normal;font-variant:normal;font-weight:bold;font-stretch:normal;font-family:'TeX Gyre Heros';-inkscape-font-specification:'TeX Gyre Heros Bold';fill:#835a3b;fill-opacity:1;stroke:none;stroke-width:0.40000001;stroke-miterlimit:4;stroke-dasharray:none;stroke-opacity:1"
         d="m 246.07879,42.452048 -5.76,0 -4.48,15.72 -4.76,-15.72 -6.16,0 8.04,22.52 0,0.12 c 0,2.04 -1.52,3.6 -3.48,3.6 -0.44,0 -0.76,-0.04 -1.48,-0.24 l 0,4.2 c 0.84,0.12 1.32,0.16 2,0.16 3.76,0 5.72,-0.68 7.2,-4.8 l 8.88,-25.56 z" />
      <path
         id="path4288"
         style="font-style:normal;font-variant:normal;font-weight:bold;font-stretch:normal;font-family:'TeX Gyre Heros';-inkscape-font-specification:'TeX Gyre Heros Bold';fill:#835a3b;fill-opacity:1;stroke:none;stroke-width:0.40000001;stroke-miterlimit:4;stroke-dasharray:none;stroke-opacity:1"
         d="m 259.34442,46.612048 0,-3.72 -3.32,0 0,-2.12 c 0,-1.12 0.48,-1.68 1.52,-1.68 0.48,0 1.12,0.04 1.6,0.12 l 0,-4.2 c -1.04,-0.08 -2.44,-0.12 -3.2,-0.12 -3.72,0 -5.52,1.76 -5.52,5.4 l 0,2.6 -3.04,0 0,3.72 3.04,0 0,17.44 5.6,0 0,-17.44 3.32,0 z m 9.08,17.44 0,-21.6 -5.6,0 0,21.6 5.6,0 z m 0,-24.2 0,-5.6 -5.6,0 0,5.6 5.6,0 z" />
      <path
         id="path4290"
         style="font-style:normal;font-variant:normal;font-weight:bold;font-stretch:normal;font-family:'TeX Gyre Heros';-inkscape-font-specification:'TeX Gyre Heros Bold';fill:#835a3b;fill-opacity:1;stroke:none;stroke-width:0.40000001;stroke-miterlimit:4;stroke-dasharray:none;stroke-opacity:1"
         d="m 292.07754,57.652048 0,-0.28 c 0,-2.48 -1.4,-4.32 -4.24,-5.16 l -7.08,-2.04 c -1.56,-0.44 -1.96,-0.8 -1.96,-1.68 0,-1.2 1.28,-2 3.24,-2 2.68,0 4,0.96 4.04,2.92 l 5.4,0 c -0.08,-4.56 -3.6,-7.32 -9.4,-7.32 -5.48,0 -8.88,2.76 -8.88,7.2 0,2.64 0.72,4.08 4.72,5.32 l 6.68,2.08 c 1.4,0.44 1.88,0.88 1.88,1.48 0,1.32 -1.56,1.84 -4.16,1.84 -2.56,0 -3.92,-0.48 -4.4,-2.8 l -5.48,0 c 0.16,4.72 3.64,7.2 10.2,7.2 6.08,0 9.44,-2.4 9.44,-6.76 z" />
      <path
         id="path4292"
         style="font-style:normal;font-variant:normal;font-weight:bold;font-stretch:normal;font-family:'TeX Gyre Heros';-inkscape-font-specification:'TeX Gyre Heros Bold';fill:#835a3b;fill-opacity:1;stroke:none;stroke-width:0.40000001;stroke-miterlimit:4;stroke-dasharray:none;stroke-opacity:1"
         d="m 315.18317,64.052048 0,-14.48 c 0,-5.04 -2.96,-7.48 -7.04,-7.48 -2.76,0 -4.76,1.12 -6.32,3.48 l 0,-10.68 -5.6,0 0,29.16 5.6,0 0,-12.96 c 0,-2.48 1.8,-4.24 4.32,-4.24 2,0 3.44,1.08 3.44,4 l 0,13.2 5.6,0 z" />
    </g>
  </g>
</svg>
